<svg xmlns="http://www.w3.org/2000/svg" xmlns:xlink="http://www.w3.org/1999/xlink" width="462" height="462" viewBox="0 0 462 462">
  <defs>
    <clipPath id="clip-path">
      <circle id="Ellipse_8" data-name="Ellipse 8" cx="231" cy="231" r="231" transform="translate(1157.575 261.575)" fill="#fff" stroke="#7f40de" stroke-width="1"/>
    </clipPath>
  </defs>
  <g id="Mask_Group_2" data-name="Mask Group 2" transform="translate(723.575 -1157.575) rotate(90)" opacity="0.76" clip-path="url(#clip-path)">
    <g id="Group_18" data-name="Group 18" transform="translate(967.702 503.906)">
      <path id="Path_37" data-name="Path 37" d="M1651.488,316.105c-110.024,51.593-213.073,22.825-299.927,39.493-263.127,50.494-409.4,33.195-409.4,33.195" transform="translate(-942.158 -316.105)" fill="none" stroke="#7f40de" stroke-width="3"/>
      <path id="Path_38" data-name="Path 38" d="M1651.488,316.105C1531.26,372.483,1423.236,355.3,1331.309,370.7c-248.821,41.681-389.151,18.095-389.151,18.095" transform="translate(-942.158 -299.01)" fill="none" stroke="#7f40de" stroke-width="3"/>
      <path id="Path_39" data-name="Path 39" d="M1651.488,316.105c-123.333,57.834-232.853,48.4-326.93,63.461-243.843,39.048-382.4,9.226-382.4,9.226" transform="translate(-942.158 -281.915)" fill="none" stroke="#7f40de" stroke-width="3"/>
      <path id="Path_40" data-name="Path 40" d="M1651.488,316.105c-126.882,59.5-232.9,53.673-328.487,68.176-239.093,36.276-380.843,4.512-380.843,4.512" transform="translate(-942.158 -264.819)" fill="none" stroke="#7f40de" stroke-width="3"/>
      <path id="Path_41" data-name="Path 41" d="M1651.488,316.105c-123.777,58.042-233.465,57.42-327.449,72.371-243.531,38.742-381.881.317-381.881.317" transform="translate(-942.158 -247.724)" fill="none" stroke="#7f40de" stroke-width="3"/>
      <path id="Path_42" data-name="Path 42" d="M1651.488,316.105c-131.762,61.787-244.883,53.718-341.989,76.566-232.638,26.483-367.341-3.879-367.341-3.879" transform="translate(-942.158 -230.628)" fill="none" stroke="#7f40de" stroke-width="3"/>
    </g>
    <g id="Group_19" data-name="Group 19" transform="translate(967.702 606.479)">
      <path id="Path_43" data-name="Path 43" d="M1651.488,316.105C1521.5,377.06,1410.759,380.25,1312.1,399.463c-234.583,33.871-369.938-10.67-369.938-10.67" transform="translate(-942.158 -316.105)" fill="none" stroke="#7f40de" stroke-width="3"/>
      <path id="Path_44" data-name="Path 44" d="M1651.488,316.105c-125.995,59.082-230.9,61.2-333.579,85.156-238.869,30.118-375.751-12.468-375.751-12.468" transform="translate(-942.158 -299.01)" fill="none" stroke="#7f40de" stroke-width="3"/>
      <path id="Path_45" data-name="Path 45" d="M1651.488,316.105c-129.544,60.747-238.888,63.5-338.142,87.455-232.735,17.113-371.188-14.768-371.188-14.768" transform="translate(-942.158 -281.915)" fill="none" stroke="#7f40de" stroke-width="3"/>
      <path id="Path_46" data-name="Path 46" d="M1651.488,316.105c-443.645,208.037-709.33,72.688-709.33,72.688" transform="translate(-942.158 -264.819)" fill="none" stroke="#7f40de" stroke-width="3"/>
      <path id="Path_47" data-name="Path 47" d="M1651.488,316.105c-443.645,208.037-709.33,72.688-709.33,72.688" transform="translate(-942.158 -247.724)" fill="none" stroke="#7f40de" stroke-width="3"/>
      <path id="Path_48" data-name="Path 48" d="M1651.488,316.105c-443.645,208.037-709.33,72.688-709.33,72.688" transform="translate(-942.158 -230.628)" fill="none" stroke="#7f40de" stroke-width="3"/>
    </g>
    <g id="Group_20" data-name="Group 20" transform="translate(967.702 709.051)">
      <path id="Path_49" data-name="Path 49" d="M1651.488,316.105c-443.645,208.037-709.33,72.688-709.33,72.688" transform="translate(-942.158 -316.105)" fill="none" stroke="#7f40de" stroke-width="3"/>
      <path id="Path_50" data-name="Path 50" d="M1651.488,316.105c-443.645,208.037-709.33,72.688-709.33,72.688" transform="translate(-942.158 -299.01)" fill="none" stroke="#7f40de" stroke-width="3"/>
      <path id="Path_51" data-name="Path 51" d="M1651.488,316.105c-443.645,208.037-709.33,72.688-709.33,72.688" transform="translate(-942.158 -281.915)" fill="none" stroke="#7f40de" stroke-width="3"/>
      <path id="Path_52" data-name="Path 52" d="M1651.488,316.105c-443.645,208.037-709.33,72.688-709.33,72.688" transform="translate(-942.158 -264.819)" fill="none" stroke="#7f40de" stroke-width="3"/>
      <path id="Path_53" data-name="Path 53" d="M1651.488,316.105c-443.645,208.037-709.33,72.688-709.33,72.688" transform="translate(-942.158 -247.724)" fill="none" stroke="#7f40de" stroke-width="3"/>
      <path id="Path_54" data-name="Path 54" d="M1651.488,316.105c-443.645,208.037-709.33,72.688-709.33,72.688" transform="translate(-942.158 -230.628)" fill="none" stroke="#7f40de" stroke-width="3"/>
    </g>
    <g id="Group_21" data-name="Group 21" transform="translate(1681.886 569.765) rotate(-180)">
      <path id="Path_55" data-name="Path 55" d="M709.33,0c-64.619,30.3-124.42,18.485-181.514,20.755-62.747,2.5-121.944,17.816-174.551,27.381C127.374,64.108,0,72.688,0,72.688" fill="none" stroke="#7f40de" stroke-width="3"/>
      <path id="Path_56" data-name="Path 56" d="M709.33,0c-72.1,33.809-143.966,31.785-206.613,35.6-70.724,4.312-130.7,12.084-188.242,17.113C113.27,70.3,0,72.688,0,72.688" transform="translate(0 17.095)" fill="none" stroke="#7f40de" stroke-width="3"/>
      <path id="Path_57" data-name="Path 57" d="M709.33,0C627.915,38.178,551.824,40.192,484.463,44.748,415.111,49.439,354.927,56.089,298.5,59.579,110.89,71.186,0,72.688,0,72.688" transform="translate(0 34.191)" fill="none" stroke="#7f40de" stroke-width="3"/>
      <path id="Path_58" data-name="Path 58" d="M709.33,0C611.417,45.914,527.378,36.228,452.519,42.484c-66.763,5.58-126.215,29.293-181.4,30.2-16.914.279-57.13,8.411-73.015,8.586-10.792.118-34.353-.188-44.494,0C39.935,83.376,0,72.688,0,72.688" transform="translate(0 51.286)" fill="none" stroke="#7f40de" stroke-width="3"/>
      <path id="Path_59" data-name="Path 59" d="M709.33,0C554.5,72.6,422.857,45.924,319.039,72.688,121.67,109.812,0,72.688,0,72.688" transform="translate(0 68.382)" fill="none" stroke="#7f40de" stroke-width="3"/>
      <path id="Path_60" data-name="Path 60" d="M709.33,0C557.161,71.356,425.139,57.35,317.9,82.449,113.684,120.1,0,72.688,0,72.688" transform="translate(0 85.477)" fill="none" stroke="#7f40de" stroke-width="3"/>
    </g>
    <g id="Group_22" data-name="Group 22" transform="translate(1680.096 467.208) rotate(-180)">
      <path id="Path_61" data-name="Path 61" d="M709.33,0C565.146,67.612,435.9,90.468,332.08,91.609,113.034,128.117,0,72.688,0,72.688" fill="none" stroke="#7f40de" stroke-width="3"/>
      <path id="Path_62" data-name="Path 62" d="M709.33,0C265.686,208.037,0,72.688,0,72.688" transform="translate(0 17.095)" fill="none" stroke="#7f40de" stroke-width="3"/>
      <path id="Path_63" data-name="Path 63" d="M709.33,0C265.686,208.037,0,72.688,0,72.688" transform="translate(0 34.191)" fill="none" stroke="#7f40de" stroke-width="3"/>
      <path id="Path_64" data-name="Path 64" d="M709.33,0C265.686,208.037,0,72.688,0,72.688" transform="translate(0 51.286)" fill="none" stroke="#7f40de" stroke-width="3"/>
      <path id="Path_65" data-name="Path 65" d="M709.33,0C265.686,208.037,0,72.688,0,72.688" transform="translate(0 68.382)" fill="none" stroke="#7f40de" stroke-width="3"/>
      <path id="Path_66" data-name="Path 66" d="M709.33,0C265.686,208.037,0,72.688,0,72.688" transform="translate(0 85.477)" fill="none" stroke="#7f40de" stroke-width="3"/>
    </g>
    <g id="Group_23" data-name="Group 23" transform="translate(1678.306 364.651) rotate(-180)">
      <path id="Path_67" data-name="Path 67" d="M709.33,0C265.686,208.037,0,72.688,0,72.688" fill="none" stroke="#7f40de" stroke-width="3"/>
      <path id="Path_68" data-name="Path 68" d="M709.33,0C265.686,208.037,0,72.688,0,72.688" transform="translate(0 17.095)" fill="none" stroke="#7f40de" stroke-width="3"/>
      <path id="Path_69" data-name="Path 69" d="M709.33,0C265.686,208.037,0,72.688,0,72.688" transform="translate(0 34.191)" fill="none" stroke="#7f40de" stroke-width="3"/>
      <path id="Path_70" data-name="Path 70" d="M709.33,0C265.686,208.037,0,72.688,0,72.688" transform="translate(0 51.286)" fill="none" stroke="#7f40de" stroke-width="3"/>
      <path id="Path_71" data-name="Path 71" d="M709.33,0C265.686,208.037,0,72.688,0,72.688" transform="translate(0 68.382)" fill="none" stroke="#7f40de" stroke-width="3"/>
      <path id="Path_72" data-name="Path 72" d="M709.33,0C265.686,208.037,0,72.688,0,72.688" transform="translate(0 85.477)" fill="none" stroke="#7f40de" stroke-width="3"/>
    </g>
    <g id="Group_24" data-name="Group 24" transform="translate(1676.516 262.095) rotate(-180)">
      <path id="Path_73" data-name="Path 73" d="M709.33,0C265.686,208.037,0,72.688,0,72.688" fill="none" stroke="#7f40de" stroke-width="3"/>
      <path id="Path_74" data-name="Path 74" d="M709.33,0C265.686,208.037,0,72.688,0,72.688" transform="translate(0 17.095)" fill="none" stroke="#7f40de" stroke-width="3"/>
      <path id="Path_75" data-name="Path 75" d="M709.33,0C265.686,208.037,0,72.688,0,72.688" transform="translate(0 34.191)" fill="none" stroke="#7f40de" stroke-width="3"/>
      <path id="Path_76" data-name="Path 76" d="M709.33,0C265.686,208.037,0,72.688,0,72.688" transform="translate(0 51.286)" fill="none" stroke="#7f40de" stroke-width="3"/>
      <path id="Path_77" data-name="Path 77" d="M709.33,0C265.686,208.037,0,72.688,0,72.688" transform="translate(0 68.382)" fill="none" stroke="#7f40de" stroke-width="3"/>
      <path id="Path_78" data-name="Path 78" d="M709.33,0C265.686,208.037,0,72.688,0,72.688" transform="translate(0 85.477)" fill="none" stroke="#7f40de" stroke-width="3"/>
    </g>
  </g>
</svg>
