<svg xmlns="http://www.w3.org/2000/svg" xmlns:xlink="http://www.w3.org/1999/xlink" width="378" height="378" viewBox="0 0 378 378">
  <defs>
    <clipPath id="clip-path">
      <circle id="Ellipse_1" data-name="Ellipse 1" cx="189" cy="189" r="189" transform="translate(1158 262)" fill="#fff" stroke="#fffffe" stroke-width="1"/>
    </clipPath>
  </defs>
  <g id="Mask_Group_1" data-name="Mask Group 1" transform="translate(-1158 -262)" opacity="0.76" clip-path="url(#clip-path)">
    <g id="Group_10" data-name="Group 10" transform="translate(60 144)">
      <path id="Path_1" data-name="Path 1" d="M1523.053,316.105c-90.1,42.251-174.492,18.693-245.62,32.342-215.484,41.351-335.274,27.184-335.274,27.184" fill="none" stroke="#fffffe" stroke-width="3"/>
      <path id="Path_1-2" data-name="Path 1" d="M1523.053,316.105c-98.459,46.17-186.923,32.1-262.205,44.708-203.768,34.134-318.689,14.818-318.689,14.818" transform="translate(0 14)" fill="none" stroke="#fffffe" stroke-width="3"/>
      <path id="Path_1-3" data-name="Path 1" d="M1523.053,316.105c-101,47.362-190.691,39.634-267.734,51.971-199.691,31.978-313.161,7.556-313.161,7.556" transform="translate(0 28)" fill="none" stroke="#fffffe" stroke-width="3"/>
      <path id="Path_1-4" data-name="Path 1" d="M1523.053,316.105c-103.908,48.725-190.733,43.955-269.01,55.832-195.8,29.708-311.885,3.695-311.885,3.695" transform="translate(0 42)" fill="none" stroke="#fffffe" stroke-width="3"/>
      <path id="Path_1-5" data-name="Path 1" d="M1523.053,316.105c-101.365,47.533-191.193,47.023-268.159,59.267-199.436,31.727-312.736.259-312.736.259" transform="translate(0 56)" fill="none" stroke="#fffffe" stroke-width="3"/>
      <path id="Path_1-6" data-name="Path 1" d="M1523.053,316.105c-107.9,50.6-200.543,43.991-280.066,62.7-190.515,21.688-300.829-3.176-300.829-3.176" transform="translate(0 70)" fill="none" stroke="#fffffe" stroke-width="3"/>
    </g>
    <g id="Group_11" data-name="Group 11" transform="translate(60 228)">
      <path id="Path_1-7" data-name="Path 1" d="M1523.053,316.105c-106.451,49.918-197.141,52.53-277.94,68.264-192.109,27.738-302.955-8.738-302.955-8.738" fill="none" stroke="#fffffe" stroke-width="3"/>
      <path id="Path_1-8" data-name="Path 1" d="M1523.053,316.105c-103.182,48.385-189.093,50.117-273.179,69.737-195.618,24.665-307.715-10.211-307.715-10.211" transform="translate(0 14)" fill="none" stroke="#fffffe" stroke-width="3"/>
      <path id="Path_1-9" data-name="Path 1" d="M1523.053,316.105c-106.088,49.748-195.633,52-276.917,71.62-190.595,14.014-303.978-12.094-303.978-12.094" transform="translate(0 28)" fill="none" stroke="#fffffe" stroke-width="3"/>
      <path id="Path_1-10" data-name="Path 1" d="M1523.053,316.105c-363.316,170.368-580.895,59.526-580.895,59.526" transform="translate(0 42)" fill="none" stroke="#fffffe" stroke-width="3"/>
      <path id="Path_1-11" data-name="Path 1" d="M1523.053,316.105c-363.316,170.368-580.895,59.526-580.895,59.526" transform="translate(0 56)" fill="none" stroke="#fffffe" stroke-width="3"/>
      <path id="Path_1-12" data-name="Path 1" d="M1523.053,316.105c-363.316,170.368-580.895,59.526-580.895,59.526" transform="translate(0 70)" fill="none" stroke="#fffffe" stroke-width="3"/>
    </g>
    <g id="Group_12" data-name="Group 12" transform="translate(60 312)">
      <path id="Path_1-13" data-name="Path 1" d="M1523.053,316.105c-363.316,170.368-580.895,59.526-580.895,59.526" fill="none" stroke="#fffffe" stroke-width="3"/>
      <path id="Path_1-14" data-name="Path 1" d="M1523.053,316.105c-363.316,170.368-580.895,59.526-580.895,59.526" transform="translate(0 14)" fill="none" stroke="#fffffe" stroke-width="3"/>
      <path id="Path_1-15" data-name="Path 1" d="M1523.053,316.105c-363.316,170.368-580.895,59.526-580.895,59.526" transform="translate(0 28)" fill="none" stroke="#fffffe" stroke-width="3"/>
      <path id="Path_1-16" data-name="Path 1" d="M1523.053,316.105c-363.316,170.368-580.895,59.526-580.895,59.526" transform="translate(0 42)" fill="none" stroke="#fffffe" stroke-width="3"/>
      <path id="Path_1-17" data-name="Path 1" d="M1523.053,316.105c-363.316,170.368-580.895,59.526-580.895,59.526" transform="translate(0 56)" fill="none" stroke="#fffffe" stroke-width="3"/>
      <path id="Path_1-18" data-name="Path 1" d="M1523.053,316.105c-363.316,170.368-580.895,59.526-580.895,59.526" transform="translate(0 70)" fill="none" stroke="#fffffe" stroke-width="3"/>
    </g>
    <g id="Group_3" data-name="Group 3" transform="translate(2529.186 830.144) rotate(-180)">
      <path id="Path_1-19" data-name="Path 1" d="M1523.053,316.105c-52.919,24.815-101.891,15.138-148.648,17-51.386,2.043-99.864,14.59-142.946,22.423-184.989,13.08-289.3,20.106-289.3,20.106" fill="none" stroke="#fffffe" stroke-width="3"/>
      <path id="Path_1-20" data-name="Path 1" d="M1523.053,316.105c-59.044,27.687-117.9,26.03-169.2,29.157-57.918,3.531-107.035,9.9-154.158,14.014-164.774,14.4-257.534,16.355-257.534,16.355" transform="translate(0 14)" fill="none" stroke="#fffffe" stroke-width="3"/>
      <path id="Path_1-21" data-name="Path 1" d="M1523.053,316.105c-66.674,31.265-128.987,32.915-184.151,36.646-56.795,3.842-106.082,9.287-152.289,12.146-153.642,9.5-244.454,10.735-244.454,10.735" transform="translate(0 28)" fill="none" stroke="#fffffe" stroke-width="3"/>
      <path id="Path_1-22" data-name="Path 1" d="M1523.053,316.105c-80.184,37.6-149.007,29.668-210.311,34.792-54.674,4.569-103.362,23.989-148.552,24.735-13.851.229-46.786,6.888-59.794,7.031-8.838.1-28.133-.154-36.437,0-93.1,1.722-125.8-7.031-125.8-7.031" transform="translate(0 42)" fill="none" stroke="#fffffe" stroke-width="3"/>
      <path id="Path_1-23" data-name="Path 1" d="M1523.053,316.105c-126.8,59.458-234.6,37.609-319.623,59.526-161.632,30.4-261.272,0-261.272,0" transform="translate(0 56)" fill="none" stroke="#fffffe" stroke-width="3"/>
      <path id="Path_1-24" data-name="Path 1" d="M1523.053,316.105c-124.617,58.436-232.734,46.966-320.557,67.52-167.238,30.832-260.337-7.994-260.337-7.994" transform="translate(0 70)" fill="none" stroke="#fffffe" stroke-width="3"/>
    </g>
    <g id="Group_4" data-name="Group 4" transform="translate(2527.72 746.157) rotate(-180)">
      <path id="Path_1-25" data-name="Path 1" d="M1523.053,316.105c-118.077,55.37-223.923,74.088-308.943,75.022-179.384,29.9-271.951-15.5-271.951-15.5" fill="none" stroke="#fffffe" stroke-width="3"/>
      <path id="Path_1-26" data-name="Path 1" d="M1523.053,316.105c-363.316,170.368-580.895,59.526-580.895,59.526" transform="translate(0 14)" fill="none" stroke="#fffffe" stroke-width="3"/>
      <path id="Path_1-27" data-name="Path 1" d="M1523.053,316.105c-363.316,170.368-580.895,59.526-580.895,59.526" transform="translate(0 28)" fill="none" stroke="#fffffe" stroke-width="3"/>
      <path id="Path_1-28" data-name="Path 1" d="M1523.053,316.105c-363.316,170.368-580.895,59.526-580.895,59.526" transform="translate(0 42)" fill="none" stroke="#fffffe" stroke-width="3"/>
      <path id="Path_1-29" data-name="Path 1" d="M1523.053,316.105c-363.316,170.368-580.895,59.526-580.895,59.526" transform="translate(0 56)" fill="none" stroke="#fffffe" stroke-width="3"/>
      <path id="Path_1-30" data-name="Path 1" d="M1523.053,316.105c-363.316,170.368-580.895,59.526-580.895,59.526" transform="translate(0 70)" fill="none" stroke="#fffffe" stroke-width="3"/>
    </g>
    <g id="Group_5" data-name="Group 5" transform="translate(2526.254 662.17) rotate(-180)">
      <path id="Path_1-31" data-name="Path 1" d="M1523.053,316.105c-363.316,170.368-580.895,59.526-580.895,59.526" fill="none" stroke="#fffffe" stroke-width="3"/>
      <path id="Path_1-32" data-name="Path 1" d="M1523.053,316.105c-363.316,170.368-580.895,59.526-580.895,59.526" transform="translate(0 14)" fill="none" stroke="#fffffe" stroke-width="3"/>
      <path id="Path_1-33" data-name="Path 1" d="M1523.053,316.105c-363.316,170.368-580.895,59.526-580.895,59.526" transform="translate(0 28)" fill="none" stroke="#fffffe" stroke-width="3"/>
      <path id="Path_1-34" data-name="Path 1" d="M1523.053,316.105c-363.316,170.368-580.895,59.526-580.895,59.526" transform="translate(0 42)" fill="none" stroke="#fffffe" stroke-width="3"/>
      <path id="Path_1-35" data-name="Path 1" d="M1523.053,316.105c-363.316,170.368-580.895,59.526-580.895,59.526" transform="translate(0 56)" fill="none" stroke="#fffffe" stroke-width="3"/>
      <path id="Path_1-36" data-name="Path 1" d="M1523.053,316.105c-363.316,170.368-580.895,59.526-580.895,59.526" transform="translate(0 70)" fill="none" stroke="#fffffe" stroke-width="3"/>
    </g>
    <g id="Group_6" data-name="Group 6" transform="translate(2524.788 578.183) rotate(-180)">
      <path id="Path_1-37" data-name="Path 1" d="M1523.053,316.105c-363.316,170.368-580.895,59.526-580.895,59.526" fill="none" stroke="#fffffe" stroke-width="3"/>
      <path id="Path_1-38" data-name="Path 1" d="M1523.053,316.105c-363.316,170.368-580.895,59.526-580.895,59.526" transform="translate(0 14)" fill="none" stroke="#fffffe" stroke-width="3"/>
      <path id="Path_1-39" data-name="Path 1" d="M1523.053,316.105c-363.316,170.368-580.895,59.526-580.895,59.526" transform="translate(0 28)" fill="none" stroke="#fffffe" stroke-width="3"/>
      <path id="Path_1-40" data-name="Path 1" d="M1523.053,316.105c-363.316,170.368-580.895,59.526-580.895,59.526" transform="translate(0 42)" fill="none" stroke="#fffffe" stroke-width="3"/>
      <path id="Path_1-41" data-name="Path 1" d="M1523.053,316.105c-363.316,170.368-580.895,59.526-580.895,59.526" transform="translate(0 56)" fill="none" stroke="#fffffe" stroke-width="3"/>
      <path id="Path_1-42" data-name="Path 1" d="M1523.053,316.105c-363.316,170.368-580.895,59.526-580.895,59.526" transform="translate(0 70)" fill="none" stroke="#fffffe" stroke-width="3"/>
    </g>
  </g>
</svg>
